<svg xmlns="http://www.w3.org/2000/svg" viewBox="0 0 415.57 111.48">
  <title>Risorsa 1</title>
  <g id="Livello_2" data-name="Livello 2">
    <g id="Livello_1-2" data-name="Livello 1">
      <g>
        <path d="M288.83,82.28c-15.35,0-26.49-11.18-26.49-26.57s11.14-26.48,26.49-26.48c15,0,25.55,10.89,25.55,26.48v.8H266c.36,13.08,9.69,22.17,22.81,22.17,7.48,0,14-2.56,18.28-7.2l.56-.6,2.6,2.51-.42.45C304.65,79.28,297.19,82.28,288.83,82.28Zm21.82-29.37c-1.24-12.21-9.76-20.08-21.82-20.08s-21.39,8.23-22.65,20.08Z" fill="#fff"/>
        <path d="M411.91,82.28V50.33c0-11-6.57-17.5-17.57-17.5-13.45.29-21.17,8.84-21.17,23.47v26h-3.66V50.33c0-11-6.6-17.5-17.66-17.5-13.26.28-21.17,9.06-21.17,23.47v26H327v-53h3.67V41c4-7.42,11.5-11.58,21.26-11.76,10.46,0,17.79,5,20.31,13.71,3.74-8.66,11.52-13.52,22.08-13.71,13.3,0,21.24,7.89,21.24,21.1v32Z" fill="#fff"/>
        <g>
          <path d="M84.89,82.28V50.33c0-11-6.56-17.5-17.56-17.5-13.45.29-21.17,8.84-21.17,23.47v26H42.5V50.33c0-11-6.61-17.5-17.67-17.5C11.58,33.11,3.66,41.89,3.66,56.3v26H0v-53H3.66V41c4-7.42,11.51-11.58,21.26-11.76,10.47,0,17.79,5,20.32,13.71C49,34.28,56.75,29.42,67.31,29.23c13.31,0,21.24,7.89,21.24,21.1v32Z" fill="#fff"/>
          <path d="M100.34,101.58a17.57,17.57,0,0,1-9.94-2.73l-.28-.19L90,98.1l1.51-2.75.73.47A14.57,14.57,0,0,0,100.13,98c4.91,0,9.07-3.57,11.74-10l2.61-6.39L92,29.23h4.13l20.19,47.88L136.2,29.34l4.25-.14L115,89.25C111.58,97.2,106.37,101.58,100.34,101.58Z" fill="#fff"/>
        </g>
        <polygon points="258.17 29.23 238.18 77.11 224.67 44.97 222.38 48.98 236.51 82.28 239.84 82.28 262.4 29.23 258.17 29.23" fill="#fff"/>
        <path d="M215.21,0a38.89,38.89,0,0,0-32.74,17.87l-53.28,93.6h9.3c4.57,0-2.16,0,1.61,0a38.87,38.87,0,0,0,32.62-17.71L226.09,0Z" fill="#fff"/>
      </g>
    </g>
  </g>
</svg>
